<?xml version="1.0" encoding="UTF-8" standalone="no"?>
<!-- Created with Inkscape (http://www.inkscape.org/) -->

<svg
   width="200"
   height="200"
   viewBox="0 0 52.916665 52.916666"
   version="1.1"
   id="svg5"
   inkscape:version="1.2.2 (b0a8486541, 2022-12-01)"
   sodipodi:docname="change-password.svg"
   xmlns:inkscape="http://www.inkscape.org/namespaces/inkscape"
   xmlns:sodipodi="http://sodipodi.sourceforge.net/DTD/sodipodi-0.dtd"
   xmlns="http://www.w3.org/2000/svg"
   xmlns:svg="http://www.w3.org/2000/svg">
  <sodipodi:namedview
     id="namedview7"
     pagecolor="#ffffff"
     bordercolor="#999999"
     borderopacity="1"
     inkscape:showpageshadow="0"
     inkscape:pageopacity="0"
     inkscape:pagecheckerboard="0"
     inkscape:deskcolor="#d1d1d1"
     inkscape:document-units="mm"
     showgrid="false"
     inkscape:zoom="1.9330551"
     inkscape:cx="44.48916"
     inkscape:cy="92.082216"
     inkscape:window-width="1366"
     inkscape:window-height="700"
     inkscape:window-x="0"
     inkscape:window-y="0"
     inkscape:window-maximized="1"
     inkscape:current-layer="layer1" />
  <defs
     id="defs2" />
  <g
     inkscape:label="Layer 1"
     inkscape:groupmode="layer"
     id="layer1">
    <g
       id="g2356"
       transform="matrix(1.0379283,0,0,1.0379283,-0.00262293,-1.8847259)">
      <path
         style="fill:#ff4d4d;fill-opacity:1;stroke:#ff4d4d;stroke-width:0.913378;stroke-opacity:1;paint-order:stroke markers fill"
         d="M 10.961453,26.786687 C 9.9827033,26.848317 6.7652191,26.774997 6.7652191,26.774997 6.0547894,6.553884 32.752086,4.8511887 33.776114,26.711817 l -4.171596,0.03608 C 27.510437,11.700279 12.52495,9.735183 10.961453,26.786687 Z"
         id="path361"
         sodipodi:nodetypes="ccccc" />
      <path
         id="rect1173"
         style="fill:#ff4d4d;fill-opacity:1;stroke:#ff4d4d;stroke-width:1.1855;stroke-opacity:1;paint-order:stroke markers fill"
         d="m 9.3614486,26.281737 c -4.8195623,0 -8.69954367,3.879984 -8.69954367,8.699548 v 8.677821 c 0,4.819563 3.87998137,8.699549 8.69954367,8.699549 H 31.278394 c 4.819564,0 8.699548,-3.879986 8.699548,-8.699549 v -8.677821 c 0,-4.819564 -3.879984,-8.699548 -8.699548,-8.699548 z M 20.372426,38.984343 a 3.1911059,3.3810371 0 0 1 3.201603,3.369981 3.1911059,3.3810371 0 0 1 -1.341595,2.765871 v 4.973499 H 18.65726 v -4.884782 a 3.1911059,3.3810371 0 0 1 -1.465918,-2.832861 3.1911059,3.3810371 0 0 1 3.181084,-3.391708 z" />
    </g>
    <g
       id="g1482"
       transform="matrix(2.1956565,0,0,2.4709323,-62.50957,-2.7918214)">
      <path
         style="fill:#ffffff;fill-opacity:0.991715;stroke:#ffffff;stroke-width:1.36205;stroke-dasharray:none;stroke-opacity:1;paint-order:stroke markers fill"
         id="path2364"
         sodipodi:type="arc"
         sodipodi:cx="48.339172"
         sodipodi:cy="19.085396"
         sodipodi:rx="2.6065712"
         sodipodi:ry="2.9065843"
         sodipodi:start="6.2654008"
         sodipodi:end="6.2653875"
         sodipodi:arc-type="arc"
         d="m 50.945331,19.033706 a 2.6065712,2.9065843 0 0 1 -2.559796,2.957814 2.6065712,2.9065843 0 0 1 -2.652521,-2.854415 2.6065712,2.9065843 0 0 1 2.559778,-2.957833 2.6065712,2.9065843 0 0 1 2.652539,2.854396"
         sodipodi:open="true" />
      <path
         style="fill:#ff4d4d;fill-opacity:1;stroke:none;stroke-width:1;stroke-opacity:1;paint-order:stroke markers fill"
         d="m 46.524373,6.6902739 c -0.44697,0.3227444 -0.500916,0.7460066 0.01262,1.3144053 l 1.908419,-0.023188 -0.02287,0.8034545 -0.815815,0.024761 c -0.41155,0.3407749 -0.369229,0.7347349 0.138547,1.1832373 l 0.81709,-0.00792 -1.67e-4,6.380232 1.63141,-0.0291 -0.0043,-9.6728808 z"
         id="path1361"
         sodipodi:nodetypes="ccccccccccc" />
      <path
         style="fill:none;fill-opacity:1;stroke:#ff4d4d;stroke-width:1.327;stroke-dasharray:none;stroke-opacity:1;paint-order:stroke markers fill"
         id="path1478"
         sodipodi:type="arc"
         sodipodi:cx="49.264683"
         sodipodi:cy="19.135391"
         sodipodi:rx="2.6511436"
         sodipodi:ry="2.7125442"
         sodipodi:start="6.2654008"
         sodipodi:end="6.2653875"
         sodipodi:arc-type="arc"
         d="m 51.915407,19.087153 a 2.6511436,2.7125442 0 0 1 -2.603569,2.760353 2.6511436,2.7125442 0 0 1 -2.697879,-2.663858 2.6511436,2.7125442 0 0 1 2.603551,-2.760372 2.6511436,2.7125442 0 0 1 2.697896,2.66384"
         sodipodi:open="true" />
    </g>
  </g>
</svg>
