<?xml version="1.0" encoding="UTF-8" standalone="no"?>
<!-- Created with Inkscape (http://www.inkscape.org/) -->

<svg
   width="24"
   height="24"
   viewBox="0 0 6.3499999 6.35"
   version="1.1"
   id="svg5"
   inkscape:version="1.2.2 (b0a8486541, 2022-12-01)"
   sodipodi:docname="community.svg"
   xml:space="preserve"
   xmlns:inkscape="http://www.inkscape.org/namespaces/inkscape"
   xmlns:sodipodi="http://sodipodi.sourceforge.net/DTD/sodipodi-0.dtd"
   xmlns:xlink="http://www.w3.org/1999/xlink"
   xmlns="http://www.w3.org/2000/svg"
   xmlns:svg="http://www.w3.org/2000/svg"><sodipodi:namedview
     id="namedview7"
     pagecolor="#ffffff"
     bordercolor="#999999"
     borderopacity="1"
     inkscape:showpageshadow="0"
     inkscape:pageopacity="0"
     inkscape:pagecheckerboard="0"
     inkscape:deskcolor="#d1d1d1"
     inkscape:document-units="mm"
     showgrid="false"
     inkscape:zoom="26.422683"
     inkscape:cx="13.927427"
     inkscape:cy="7.0772525"
     inkscape:window-width="1366"
     inkscape:window-height="700"
     inkscape:window-x="0"
     inkscape:window-y="0"
     inkscape:window-maximized="1"
     inkscape:current-layer="layer1" /><defs
     id="defs2"><linearGradient
       inkscape:collect="always"
       id="linearGradient1047"><stop
         style="stop-color:#d71200;stop-opacity:1;"
         offset="0"
         id="stop1043" /><stop
         style="stop-color:#fff300;stop-opacity:1;"
         offset="1"
         id="stop1045" /></linearGradient><linearGradient
       inkscape:collect="always"
       xlink:href="#linearGradient1047"
       id="linearGradient1049"
       x1="7.0686159"
       y1="8.1192389"
       x2="12.903832"
       y2="1.8997049"
       gradientUnits="userSpaceOnUse"
       gradientTransform="matrix(1.4609293,0,0,1.4924893,-4.0873955,-4.5056928)" /></defs><g
     inkscape:label="Layer 1"
     inkscape:groupmode="layer"
     id="layer1"><g
       inkscape:label="Layer 1"
       id="layer1-3"
       transform="matrix(0.82723388,0,0,0.59616962,0.64004345,2.6143139)"><path
         style="fill:#000000;fill-opacity:0.553397;stroke:#ff4d4d;stroke-width:0;stroke-dasharray:none;stroke-opacity:1;paint-order:stroke markers fill"
         d="M 1.0837824,6.2928983 C 0.76293423,6.2842283 -0.57022536,6.2863883 -0.57022536,6.2863883 -1.849633,3.2201094 3.9838366,3.3298969 3.1520835,6.1472685 3.040268,6.3039027 2.9527755,6.2897345 2.7353562,6.2991886 2.083467,6.3275436 1.5318859,6.3183606 1.5368666,6.3052286 Z"
         id="path10699"
         sodipodi:nodetypes="sccscs" /><path
         style="fill:#000000;fill-opacity:0.553397;stroke:#ff4d4d;stroke-width:0;stroke-dasharray:none;stroke-opacity:1;paint-order:stroke markers fill"
         id="path10578"
         sodipodi:type="arc"
         sodipodi:cx="1.2010098"
         sodipodi:cy="1.9012768"
         sodipodi:rx="1.5281172"
         sodipodi:ry="1.8666896"
         sodipodi:start="6.2801085"
         sodipodi:end="6.2799708"
         sodipodi:open="true"
         sodipodi:arc-type="arc"
         d="M 2.7291197,1.8955334 A 1.5281172,1.8666896 0 0 1 1.2057641,3.7679574 1.5281172,1.8666896 0 0 1 -0.32709987,1.9071488 1.5281172,1.8666896 0 0 1 1.1961502,0.0345967 1.5281172,1.8666896 0 0 1 2.729119,1.8952764" /><path
         style="fill:#000000;fill-opacity:0.553397;stroke:#ff4d4d;stroke-width:0;stroke-dasharray:none;stroke-opacity:1;paint-order:stroke markers fill"
         d="m 4.7844741,6.2928983 c -0.320848,-0.00867 -1.6540075,-0.00651 -1.6540075,-0.00651 -1.279408,-3.0662789 4.5540615,-2.9564914 3.7223085,-0.1391198 -0.111815,0.1566342 -0.199308,0.142466 -0.416727,0.1519201 -0.651889,0.028355 -1.203471,0.019172 -1.19849,0.00604 z"
         id="path2446"
         sodipodi:nodetypes="sccscs" /><path
         style="fill:#000000;fill-opacity:0.553397;stroke:#ff4d4d;stroke-width:0;stroke-dasharray:none;stroke-opacity:1;paint-order:stroke markers fill"
         id="path2448"
         sodipodi:type="arc"
         sodipodi:cx="4.9016976"
         sodipodi:cy="1.9012768"
         sodipodi:rx="1.5281172"
         sodipodi:ry="1.8666896"
         sodipodi:start="6.2801085"
         sodipodi:end="6.2799708"
         sodipodi:open="true"
         sodipodi:arc-type="arc"
         d="M 6.4298076,1.8955334 A 1.5281172,1.8666896 0 0 1 4.906452,3.7679574 1.5281172,1.8666896 0 0 1 3.373588,1.9071488 1.5281172,1.8666896 0 0 1 4.8968381,0.0345967 1.5281172,1.8666896 0 0 1 6.4298069,1.8952764" /><path
         style="fill:#000000;fill-opacity:1;stroke:#ff4d4d;stroke-width:0;stroke-dasharray:none;stroke-opacity:1;paint-order:stroke markers fill"
         d="M 3.0846325,6.2928983 C 2.8100916,6.2842316 1.669343,6.2863891 1.669343,6.2863891 0.57458838,3.2201102 5.5661301,3.3298977 4.8544216,6.1472693 4.7587441,6.3039035 4.6838791,6.2897353 4.4978394,6.2991894 c -0.5578039,0.028355 -1.0297769,0.019172 -1.025515,0.00604 z"
         id="path930"
         sodipodi:nodetypes="sccscs" /><path
         style="fill:#000000;fill-opacity:1;stroke:#ff4d4d;stroke-width:0;stroke-dasharray:none;stroke-opacity:1;paint-order:stroke markers fill"
         id="path932"
         sodipodi:type="arc"
         sodipodi:cx="3.1849394"
         sodipodi:cy="1.9012768"
         sodipodi:rx="1.3075683"
         sodipodi:ry="1.8666896"
         sodipodi:start="6.2801085"
         sodipodi:end="6.2799708"
         sodipodi:open="true"
         sodipodi:arc-type="arc"
         d="M 4.4925015,1.8955334 A 1.3075683,1.8666896 0 0 1 3.1890075,3.7679574 1.3075683,1.8666896 0 0 1 1.8773775,1.9071488 1.3075683,1.8666896 0 0 1 3.1807812,0.0345967 1.3075683,1.8666896 0 0 1 4.4925009,1.8952764" /></g><g
       inkscape:label="Layer 1"
       id="layer1-2"
       transform="matrix(0.15759412,0,0,0.13929361,1.8981431,0.01579236)"><path
         style="fill:url(#linearGradient1049);fill-opacity:1;stroke:#000000;stroke-width:0;stroke-dasharray:none;paint-order:stroke markers fill"
         id="path234"
         sodipodi:type="arc"
         sodipodi:cx="8.4508514"
         sodipodi:cy="6.4097238"
         sodipodi:rx="7.5739856"
         sodipodi:ry="6.4114523"
         sodipodi:start="6.2803115"
         sodipodi:end="6.2799708"
         sodipodi:arc-type="slice"
         d="M 16.024806,6.3912985 A 7.5739856,6.4114523 0 0 1 8.4732627,12.821148 7.5739856,6.4114523 0 0 1 0.87690096,6.4292412 7.5739856,6.4114523 0 0 1 8.42715,-0.00169714 7.5739856,6.4114523 0 0 1 16.024798,6.3891141 l -7.5739466,0.02061 z" /><path
         style="fill:#d71200;fill-opacity:1;stroke:#000000;stroke-width:0;stroke-dasharray:none;paint-order:stroke markers fill"
         id="path1097"
         sodipodi:type="arc"
         sodipodi:cx="2.5688694"
         sodipodi:cy="12.862851"
         sodipodi:rx="1.7454586"
         sodipodi:ry="1.4775475"
         sodipodi:start="6.2803115"
         sodipodi:end="6.2799708"
         sodipodi:arc-type="slice"
         d="M 4.3143207,12.858605 A 1.7454586,1.4775475 0 0 1 2.5740341,14.340392 1.7454586,1.4775475 0 0 1 0.82341884,12.867349 1.7454586,1.4775475 0 0 1 2.5634072,11.385311 1.7454586,1.4775475 0 0 1 4.3143189,12.858102 l -1.7454495,0.0047 z" /><path
         style="fill:#d71200;fill-opacity:1;stroke:#000000;stroke-width:0;stroke-dasharray:none;paint-order:stroke markers fill"
         id="path1101"
         sodipodi:type="arc"
         sodipodi:cx="0.99697703"
         sodipodi:cy="15.135539"
         sodipodi:rx="0.99469042"
         sodipodi:ry="0.84201509"
         sodipodi:start="6.2803115"
         sodipodi:end="6.2799708"
         sodipodi:arc-type="slice"
         d="m 1.9916633,15.133119 a 0.99469042,0.84201509 0 0 1 -0.991743,0.844431 0.99469042,0.84201509 0 0 1 -0.99762908,-0.839448 0.99469042,0.84201509 0 0 1 0.9915731,-0.844574 0.99469042,0.84201509 0 0 1 0.99779798,0.839304 l -0.99468527,0.0027 z" /><path
         style="fill:#d71200;fill-opacity:1;stroke:#000000;stroke-width:0;stroke-dasharray:none;paint-order:stroke markers fill"
         id="path49719"
         sodipodi:type="arc"
         sodipodi:cx="-14.352855"
         sodipodi:cy="12.934739"
         sodipodi:rx="1.7454586"
         sodipodi:ry="1.4775475"
         sodipodi:start="6.2803115"
         sodipodi:end="6.2799708"
         sodipodi:arc-type="slice"
         d="m -12.607403,12.930493 a 1.7454586,1.4775475 0 0 1 -1.740287,1.481787 1.7454586,1.4775475 0 0 1 -1.750615,-1.473043 1.7454586,1.4775475 0 0 1 1.739988,-1.482038 1.7454586,1.4775475 0 0 1 1.750912,1.472791 l -1.74545,0.0047 z"
         transform="scale(-1,1)" /><path
         style="fill:#d71200;fill-opacity:1;stroke:#000000;stroke-width:0;stroke-dasharray:none;paint-order:stroke markers fill"
         id="path49721"
         sodipodi:type="arc"
         sodipodi:cx="-15.924748"
         sodipodi:cy="15.207427"
         sodipodi:rx="0.99469042"
         sodipodi:ry="0.84201509"
         sodipodi:start="6.2803115"
         sodipodi:end="6.2799708"
         sodipodi:arc-type="slice"
         d="m -14.930062,15.205007 a 0.99469042,0.84201509 0 0 1 -0.991743,0.844431 0.99469042,0.84201509 0 0 1 -0.997629,-0.839448 0.99469042,0.84201509 0 0 1 0.991573,-0.844574 0.99469042,0.84201509 0 0 1 0.997798,0.839304 l -0.994685,0.0027 z"
         transform="scale(-1,1)" /><path
         style="fill:#d71200;fill-opacity:1;stroke:#000000;stroke-width:0;stroke-dasharray:none;paint-order:stroke markers fill"
         id="path49727"
         sodipodi:type="arc"
         sodipodi:cx="-8.5268478"
         sodipodi:cy="14.731937"
         sodipodi:rx="1.7454586"
         sodipodi:ry="1.4775475"
         sodipodi:start="6.2803115"
         sodipodi:end="6.2799708"
         sodipodi:arc-type="slice"
         d="m -6.7813964,14.727691 a 1.7454586,1.4775475 0 0 1 -1.7402867,1.481787 1.7454586,1.4775475 0 0 1 -1.7506149,-1.473043 1.7454586,1.4775475 0 0 1 1.739988,-1.482038 1.7454586,1.4775475 0 0 1 1.7509117,1.472791 l -1.7454495,0.0047 z"
         transform="scale(-1,1)" /><path
         style="fill:#d71200;fill-opacity:1;stroke:#000000;stroke-width:0;stroke-dasharray:none;paint-order:stroke markers fill"
         id="path49729"
         sodipodi:type="arc"
         sodipodi:cx="-8.4565392"
         sodipodi:cy="17.364065"
         sodipodi:rx="0.99469042"
         sodipodi:ry="0.84201509"
         sodipodi:start="6.2803115"
         sodipodi:end="6.2799708"
         sodipodi:arc-type="slice"
         d="m -7.4618528,17.361645 a 0.99469042,0.84201509 0 0 1 -0.9917431,0.844432 0.99469042,0.84201509 0 0 1 -0.9976291,-0.839449 0.99469042,0.84201509 0 0 1 0.9915731,-0.844574 0.99469042,0.84201509 0 0 1 0.997798,0.839305 l -0.9946853,0.0027 z"
         transform="scale(-1,1)" /></g></g></svg>
