<?xml version="1.0" encoding="UTF-8" standalone="no"?>
<!-- Created with Inkscape (http://www.inkscape.org/) -->

<svg
   width="200"
   height="200"
   viewBox="0 0 52.916665 52.916666"
   version="1.1"
   id="svg21378"
   inkscape:version="1.2.2 (b0a8486541, 2022-12-01)"
   sodipodi:docname="deactivate-account.svg"
   xmlns:inkscape="http://www.inkscape.org/namespaces/inkscape"
   xmlns:sodipodi="http://sodipodi.sourceforge.net/DTD/sodipodi-0.dtd"
   xmlns="http://www.w3.org/2000/svg"
   xmlns:svg="http://www.w3.org/2000/svg">
  <sodipodi:namedview
     id="namedview21380"
     pagecolor="#414141"
     bordercolor="#999999"
     borderopacity="1"
     inkscape:showpageshadow="0"
     inkscape:pageopacity="0"
     inkscape:pagecheckerboard="0"
     inkscape:deskcolor="#d1d1d1"
     inkscape:document-units="mm"
     showgrid="false"
     inkscape:zoom="1.0601265"
     inkscape:cx="-56.597019"
     inkscape:cy="121.68359"
     inkscape:window-width="1366"
     inkscape:window-height="700"
     inkscape:window-x="0"
     inkscape:window-y="0"
     inkscape:window-maximized="1"
     inkscape:current-layer="layer1" />
  <defs
     id="defs21375" />
  <g
     inkscape:label="Layer 1"
     inkscape:groupmode="layer"
     id="layer1">
    <path
       style="fill:none;fill-opacity:1;stroke:#ff4d4f;stroke-width:4.35700003;stroke-dasharray:none;stroke-opacity:1;paint-order:stroke markers fill"
       id="path10272"
       sodipodi:type="arc"
       sodipodi:cx="26.560852"
       sodipodi:cy="26.46459"
       sodipodi:rx="25.31336"
       sodipodi:ry="25.473633"
       sodipodi:start="6.2799802"
       sodipodi:end="6.2799708"
       sodipodi:arc-type="arc"
       d="M 51.874082,26.382944 A 25.31336,25.473633 0 0 1 26.642043,51.938092 25.31336,25.473633 0 0 1 1.2476222,26.546355 25.31336,25.473633 0 0 1 26.479542,0.99108868 25.31336,25.473633 0 0 1 51.874081,26.382705"
       sodipodi:open="true" />
    <path
       style="fill:#000000;fill-opacity:1;stroke:#fdfdfd;stroke-width:2.90893;stroke-dasharray:none;stroke-opacity:1;paint-order:stroke markers fill"
       d="m 25.242647,43.719631 c -2.423202,-0.04529 -12.491885,-0.03429 -12.491885,-0.03429 -9.6627178,-16.045694 34.39448,-15.471179 28.112669,-0.728021 -0.844465,0.819666 -1.505248,0.745491 -3.147296,0.794969 -4.923373,0.148346 -9.089186,0.100285 -9.051568,0.0313 z"
       id="path10699"
       sodipodi:nodetypes="sccscs" />
    <path
       style="fill:#000000;fill-opacity:1;stroke:#fdfdfd;stroke-width:2.9389;stroke-dasharray:none;stroke-opacity:1;paint-order:stroke markers fill"
       id="path10578"
       sodipodi:type="arc"
       sodipodi:cx="26.128086"
       sodipodi:cy="19.224697"
       sodipodi:rx="11.5411"
       sodipodi:ry="11.282057"
       sodipodi:start="6.2801085"
       sodipodi:end="6.2799708"
       sodipodi:open="true"
       sodipodi:arc-type="arc"
       d="M 37.669131,19.189984 A 11.5411,11.282057 0 0 1 26.163993,30.506699 11.5411,11.282057 0 0 1 14.587044,19.260187 11.5411,11.282057 0 0 1 26.091385,7.9426974 11.5411,11.282057 0 0 1 37.669126,19.188431" />
    <path
       style="fill:#ff4d4f;fill-opacity:1;stroke:#ff4d4f;stroke-width:3.7999995;stroke-dasharray:none;stroke-opacity:1;paint-order:stroke markers fill"
       d="M 9.4376271,8.9404811 10.473999,7.8955052 45.519673,42.803802 44.512211,43.723853 Z"
       id="path10547"
       sodipodi:nodetypes="ccccc" />
  </g>
</svg>
