<?xml version="1.0" encoding="UTF-8" standalone="no"?>
<!-- Created with Inkscape (http://www.inkscape.org/) -->

<svg
   width="200"
   height="200"
   viewBox="0 0 52.916665 52.916666"
   version="1.1"
   id="svg21378"
   inkscape:version="1.2.2 (b0a8486541, 2022-12-01)"
   sodipodi:docname="deactivate-account.svg"
   xmlns:inkscape="http://www.inkscape.org/namespaces/inkscape"
   xmlns:sodipodi="http://sodipodi.sourceforge.net/DTD/sodipodi-0.dtd"
   xmlns="http://www.w3.org/2000/svg"
   xmlns:svg="http://www.w3.org/2000/svg">
  <sodipodi:namedview
     id="namedview21380"
     pagecolor="#414141"
     bordercolor="#999999"
     borderopacity="1"
     inkscape:showpageshadow="0"
     inkscape:pageopacity="0"
     inkscape:pagecheckerboard="0"
     inkscape:deskcolor="#d1d1d1"
     inkscape:document-units="mm"
     showgrid="false"
     inkscape:zoom="1.0601265"
     inkscape:cx="10.37612"
     inkscape:cy="121.68359"
     inkscape:window-width="1366"
     inkscape:window-height="700"
     inkscape:window-x="0"
     inkscape:window-y="0"
     inkscape:window-maximized="1"
     inkscape:current-layer="layer1" />
  <defs
     id="defs21375" />
  <g
     inkscape:label="Layer 1"
     inkscape:groupmode="layer"
     id="layer1">
    <path
       style="fill:none;fill-opacity:1;stroke:#040404;stroke-width:1.75739;stroke-dasharray:none;stroke-opacity:1;paint-order:stroke markers fill"
       id="path10272"
       sodipodi:type="arc"
       sodipodi:cx="26.560852"
       sodipodi:cy="26.46459"
       sodipodi:rx="25.31336"
       sodipodi:ry="25.473633"
       sodipodi:start="6.2799802"
       sodipodi:end="6.2799708"
       sodipodi:arc-type="arc"
       d="M 51.874082,26.382944 A 25.31336,25.473633 0 0 1 26.642043,51.938092 25.31336,25.473633 0 0 1 1.2476222,26.546355 25.31336,25.473633 0 0 1 26.479542,0.99108868 25.31336,25.473633 0 0 1 51.874081,26.382705"
       sodipodi:open="true" />
    <path
       style="fill:#000000;fill-opacity:1;stroke:#040404;stroke-width:1.2;stroke-dasharray:none;stroke-opacity:1;paint-order:stroke markers fill"
       d="M 9.4376271,8.9404811 10.473999,7.8955052 45.519673,42.803802 44.512211,43.723853 Z"
       id="path10547"
       sodipodi:nodetypes="ccccc" />
    <path
       style="fill:#000000;fill-opacity:1;stroke:#fdfdfd;stroke-width:2.38764;stroke-dasharray:none;stroke-opacity:1;paint-order:stroke markers fill"
       d="M 25.95286,36.394445 C 23.904332,36.358355 15.392462,36.367115 15.392462,36.367115 7.2237864,23.579842 44.46889,24.03769 39.158369,35.786935 c -0.713895,0.653215 -1.272508,0.594103 -2.660664,0.633533 -4.162124,0.118221 -7.683822,0.07992 -7.65202,0.02494 z"
       id="path10699"
       sodipodi:nodetypes="sccscs" />
    <path
       style="fill:#000000;fill-opacity:1;stroke:#fdfdfd;stroke-width:2.41224;stroke-dasharray:none;stroke-opacity:1;paint-order:stroke markers fill"
       id="path10578"
       sodipodi:type="arc"
       sodipodi:cx="26.701393"
       sodipodi:cy="16.87373"
       sodipodi:rx="9.7566223"
       sodipodi:ry="8.9909945"
       sodipodi:start="6.2801085"
       sodipodi:end="6.2799708"
       sodipodi:open="true"
       sodipodi:arc-type="arc"
       d="m 36.457969,16.846066 a 9.7566223,8.9909945 0 0 1 -9.726221,9.018615 9.7566223,8.9909945 0 0 1 -9.786929,-8.962669 9.7566223,8.9909945 0 0 1 9.725547,-9.0192313 9.7566223,8.9909945 0 0 1 9.787599,8.9620473" />
  </g>
</svg>
