<?xml version="1.0" encoding="UTF-8" standalone="no"?>
<!-- Created with Inkscape (http://www.inkscape.org/) -->

<svg
   width="180"
   height="180"
   viewBox="0 0 180 180"
   version="1.1"
   id="svg5"
   xml:space="preserve"
   inkscape:version="1.2.2 (b0a8486541, 2022-12-01)"
   sodipodi:docname="default-profile.svg"
   inkscape:export-filename="default-profile.png"
   inkscape:export-xdpi="136.53334"
   inkscape:export-ydpi="136.53334"
   xmlns:inkscape="http://www.inkscape.org/namespaces/inkscape"
   xmlns:sodipodi="http://sodipodi.sourceforge.net/DTD/sodipodi-0.dtd"
   xmlns:xlink="http://www.w3.org/1999/xlink"
   xmlns="http://www.w3.org/2000/svg"
   xmlns:svg="http://www.w3.org/2000/svg"><sodipodi:namedview
     id="namedview7"
     pagecolor="#ffffff"
     bordercolor="#999999"
     borderopacity="1"
     inkscape:showpageshadow="0"
     inkscape:pageopacity="0"
     inkscape:pagecheckerboard="0"
     inkscape:deskcolor="#d1d1d1"
     inkscape:document-units="px"
     showgrid="false"
     inkscape:zoom="2.2001057"
     inkscape:cx="54.542834"
     inkscape:cy="79.996157"
     inkscape:window-width="1366"
     inkscape:window-height="700"
     inkscape:window-x="0"
     inkscape:window-y="0"
     inkscape:window-maximized="1"
     inkscape:current-layer="layer1" /><defs
     id="defs2"><linearGradient
       inkscape:collect="always"
       id="linearGradient4631"><stop
         style="stop-color:#ffc32a;stop-opacity:0.78431374;"
         offset="0"
         id="stop4627" /><stop
         style="stop-color:#ff1212;stop-opacity:0.55709076;"
         offset="1"
         id="stop4629" /></linearGradient><linearGradient
       inkscape:collect="always"
       xlink:href="#linearGradient4631"
       id="linearGradient4633"
       x1="299.28122"
       y1="158.50156"
       x2="301.98538"
       y2="62.774849"
       gradientUnits="userSpaceOnUse"
       gradientTransform="translate(-210.75317)" /><filter
       inkscape:collect="always"
       style="color-interpolation-filters:sRGB"
       id="filter7074"
       x="-1.8200223"
       y="-0.89507653"
       width="4.6400446"
       height="2.7901531"><feGaussianBlur
         inkscape:collect="always"
         stdDeviation="38.472341"
         id="feGaussianBlur7076" /></filter><linearGradient
       inkscape:collect="always"
       xlink:href="#linearGradient4631"
       id="linearGradient7084"
       gradientUnits="userSpaceOnUse"
       x1="299.28122"
       y1="158.50156"
       x2="301.98538"
       y2="62.774849"
       gradientTransform="matrix(3.2120273,0,0,1.5769539,-879.04523,-94.904257)" /></defs><g
     inkscape:label="Layer 1"
     inkscape:groupmode="layer"
     id="layer1"><path
       style="fill:url(#linearGradient7084);fill-opacity:1;stroke:#ff0606;stroke-width:0;stroke-dasharray:none;stroke-opacity:1;paint-order:stroke markers fill"
       d="m 14.106004,78.007568 c 17.888933,7.54003 22.295931,15.386168 29.24727,23.713352 C 88.399376,55.074762 76.246716,31.01028 83.360964,10.677738 101.13845,27.597181 102.63146,66.618649 115.40102,88.150408 134.38015,84.77568 131.54443,46.998172 138.74729,38.144246 265.91211,217.29235 -44.340438,205.6124 14.106004,78.007568 Z"
       id="path4565"
       sodipodi:nodetypes="cccccc" /><path
       style="opacity:1;fill:url(#linearGradient4633);fill-opacity:1;stroke:#ff0606;stroke-width:0;stroke-dasharray:none;stroke-opacity:1;paint-order:stroke markers fill;filter:url(#filter7074)"
       d="m 67.31148,109.64926 c 5.56936,4.78139 6.94139,9.75689 9.10555,15.03744 14.0242,-29.579911 10.24071,-44.840016 12.45559,-57.733573 5.53466,10.729195 5.99948,35.474033 9.97503,49.128053 5.90877,-2.14003 5.02592,-26.096031 7.26839,-31.710606 C 145.70625,197.97447 49.11536,190.56782 67.31148,109.64926 Z"
       id="path7072"
       sodipodi:nodetypes="cccccc"
       transform="matrix(3.2120272,0,0,1.5221046,-202.10029,-91.231921)" /><path
       style="fill:none;stroke:#ff4444;stroke-width:5.80396;stroke-dasharray:none;stroke-opacity:1;paint-order:stroke markers fill"
       id="path894"
       sodipodi:type="arc"
       sodipodi:cx="89.811577"
       sodipodi:cy="90.440651"
       sodipodi:rx="86.80024"
       sodipodi:ry="87.877953"
       sodipodi:start="0"
       sodipodi:end="6.2831804"
       sodipodi:arc-type="arc"
       d="M 176.61182,90.440651 A 86.80024,87.877953 0 0 1 89.811683,178.3186 86.80024,87.877953 0 0 1 3.0113373,90.440867 86.80024,87.877953 0 0 1 89.811257,2.5626984 86.80024,87.877953 0 0 1 176.61182,90.44022"
       sodipodi:open="true" /><g
       id="g2723"
       transform="matrix(0.99981406,0,0,1.0099418,0.01691649,-0.5463472)"><path
         style="fill:#ff4444;fill-opacity:1;stroke:#ff4444;stroke-width:1.45029;stroke-dasharray:none;stroke-opacity:1;paint-order:stroke markers fill"
         id="path1153"
         sodipodi:type="arc"
         sodipodi:cx="92.347473"
         sodipodi:cy="77.466019"
         sodipodi:rx="16.222284"
         sodipodi:ry="22.592283"
         sodipodi:start="0.0033944891"
         sodipodi:end="6.2772713"
         sodipodi:open="true"
         sodipodi:arc-type="arc"
         d="M 108.56966,77.542708 A 16.222284,22.592283 0 0 1 92.330158,100.05829 16.222284,22.592283 0 0 1 76.125202,77.49448 16.222284,22.592283 0 0 1 92.289286,54.873881 16.222284,22.592283 0 0 1 108.56947,77.332409" /><path
         style="fill:#ff4444;fill-opacity:1;stroke:#ff4444;stroke-width:3.78;stroke-dasharray:none;stroke-opacity:1;paint-order:stroke markers fill"
         d="m 50.629755,164.13577 c -2.948941,-18.64648 4.579782,-78.00445 26.959402,-65.705536 12.026047,10.146326 22.802923,4.618776 32.618243,-0.210889 17.19078,-6.638446 22.9413,49.327925 21.54142,66.648405 2.02574,6.1594 -68.879981,16.38835 -77.977664,0.53857 -3.40226,-5.92734 -3.141401,-1.2705 -3.141401,-1.2705 z"
         id="path2670"
         sodipodi:nodetypes="ccccscc" /></g></g></svg>
