<?xml version="1.0" encoding="UTF-8" standalone="no"?>
<!-- Created with Inkscape (http://www.inkscape.org/) -->

<svg
   width="24"
   height="24"
   viewBox="0 0 6.3499998 6.3499999"
   version="1.1"
   id="svg21378"
   inkscape:version="1.2.2 (b0a8486541, 2022-12-01)"
   sodipodi:docname="follow-icon.svg"
   xmlns:inkscape="http://www.inkscape.org/namespaces/inkscape"
   xmlns:sodipodi="http://sodipodi.sourceforge.net/DTD/sodipodi-0.dtd"
   xmlns="http://www.w3.org/2000/svg"
   xmlns:svg="http://www.w3.org/2000/svg">
  <sodipodi:namedview
     id="namedview21380"
     pagecolor="#414141"
     bordercolor="#999999"
     borderopacity="1"
     inkscape:showpageshadow="0"
     inkscape:pageopacity="0"
     inkscape:pagecheckerboard="0"
     inkscape:deskcolor="#d1d1d1"
     inkscape:document-units="mm"
     showgrid="false"
     inkscape:zoom="13.911943"
     inkscape:cx="-0.5031648"
     inkscape:cy="14.591779"
     inkscape:window-width="1366"
     inkscape:window-height="700"
     inkscape:window-x="0"
     inkscape:window-y="0"
     inkscape:window-maximized="1"
     inkscape:current-layer="layer1" />
  <defs
     id="defs21375" />
  <g
     inkscape:label="Layer 1"
     inkscape:groupmode="layer"
     id="layer1">
    <path
       style="fill:#eaeaea;fill-opacity:0.8561914;stroke:#ff4d4d;stroke-width:0.16;stroke-dasharray:none;stroke-opacity:1;paint-order:stroke markers fill"
       d="M 1.9420328,6.2928983 C 1.6211847,6.2842316 0.28802524,6.2863891 0.28802524,6.2863891 -0.99138257,3.2201102 4.842087,3.3298977 4.0103339,6.1472693 3.8985184,6.3039035 3.8110259,6.2897353 3.5936066,6.2991894 2.9417174,6.3275441 2.3901363,6.3183613 2.395117,6.3052287 Z"
       id="path10699"
       sodipodi:nodetypes="sccscs" />
    <path
       style="fill:#eaeaea;fill-opacity:0.8561914;stroke:#ff4d4d;stroke-width:0.16;stroke-dasharray:none;stroke-opacity:1;paint-order:stroke markers fill"
       id="path10578"
       sodipodi:type="arc"
       sodipodi:cx="2.0592601"
       sodipodi:cy="1.9012768"
       sodipodi:rx="1.5281172"
       sodipodi:ry="1.8666896"
       sodipodi:start="6.2801085"
       sodipodi:end="6.2799708"
       sodipodi:open="true"
       sodipodi:arc-type="arc"
       d="M 3.5873701,1.8955334 A 1.5281172,1.8666896 0 0 1 2.0640144,3.7679574 1.5281172,1.8666896 0 0 1 0.53115051,1.9071488 1.5281172,1.8666896 0 0 1 2.0544006,0.0345967 1.5281172,1.8666896 0 0 1 3.5873694,1.8952764" />
    <path
       style="fill:#eaeaea;fill-opacity:1;stroke:#ff4d4d;stroke-width:0.16;stroke-dasharray:none;stroke-opacity:1;paint-order:stroke markers fill"
       d="M 4.1101344,6.2928983 C 3.7892863,6.2842316 2.4561266,6.2863891 2.4561266,6.2863891 1.1767186,3.2201102 7.0101886,3.3298977 6.1784355,6.1472693 6.06662,6.3039035 5.9791275,6.2897353 5.7617082,6.2991894 5.109819,6.3275441 4.5582379,6.3183613 4.5632186,6.3052287 Z"
       id="path2446"
       sodipodi:nodetypes="sccscs" />
    <path
       style="fill:#eaeaea;fill-opacity:1;stroke:#ff4d4d;stroke-width:0.16;stroke-dasharray:none;stroke-opacity:1;paint-order:stroke markers fill"
       id="path2448"
       sodipodi:type="arc"
       sodipodi:cx="4.2273598"
       sodipodi:cy="1.9012768"
       sodipodi:rx="1.5281172"
       sodipodi:ry="1.8666896"
       sodipodi:start="6.2801085"
       sodipodi:end="6.2799708"
       sodipodi:open="true"
       sodipodi:arc-type="arc"
       d="M 5.7554697,1.8955334 A 1.5281172,1.8666896 0 0 1 4.2321141,3.7679574 1.5281172,1.8666896 0 0 1 2.6992502,1.9071488 1.5281172,1.8666896 0 0 1 4.2225002,0.0345967 1.5281172,1.8666896 0 0 1 5.7554691,1.8952764" />
  </g>
</svg>
