<svg width="24" height="24" viewBox="0 0 24 24" fill="none" xmlns="http://www.w3.org/2000/svg">
    <path d="M12 12.75C8.83 12.75 6.25 15.33 6.25 18.5V19.88H17.75V18.5C17.75 15.33 15.17 12.75 12 12.75ZM4.25 18.5C4.25 14.22 7.72 10.75 12 10.75C16.28 10.75 19.75 14.22 19.75 18.5V21.88H4.25V18.5Z" fill="currentColor"/>
    <path d="M12 11.25C14.07 11.25 15.75 9.57 15.75 7.5C15.75 5.43 14.07 3.75 12 3.75C9.93 3.75 8.25 5.43 8.25 7.5C8.25 9.57 9.93 11.25 12 11.25ZM12 5.75C12.97 5.75 13.75 6.53 13.75 7.5C13.75 8.47 12.97 9.25 12 9.25C11.03 9.25 10.25 8.47 10.25 7.5C10.25 6.53 11.03 5.75 12 5.75Z" fill="currentColor"/>
    <path d="M20.75 7.5C20.75 5.43 19.07 3.75 17 3.75C16.03 3.75 15.25 4.53 15.25 5.5C15.25 6.47 16.03 7.25 17 7.25C17.97 7.25 18.75 8.03 18.75 9C18.75 9.97 17.97 10.75 17 10.75C16.03 10.75 15.25 11.53 15.25 12.5C15.25 13.47 16.03 14.25 17 14.25C19.07 14.25 20.75 12.57 20.75 10.5V7.5Z" fill="currentColor"/>
    <path d="M7 3.75C4.93 3.75 3.25 5.43 3.25 7.5V10.5C3.25 12.57 4.93 14.25 7 14.25C7.97 14.25 8.75 13.47 8.75 12.5C8.75 11.53 7.97 10.75 7 10.75C6.03 10.75 5.25 9.97 5.25 9C5.25 8.03 6.03 7.25 7 7.25C7.97 7.25 8.75 6.47 8.75 5.5C8.75 4.53 7.97 3.75 7 3.75Z" fill="currentColor"/>
</svg>