<?xml version="1.0" encoding="UTF-8" standalone="no"?>
<!-- Created with Inkscape (http://www.inkscape.org/) -->

<svg
   width="24"
   height="24"
   viewBox="0 0 6.3499999 6.35"
   version="1.1"
   id="svg5"
   inkscape:version="1.2.2 (b0a8486541, 2022-12-01)"
   sodipodi:docname="innovation.svg"
   xml:space="preserve"
   xmlns:inkscape="http://www.inkscape.org/namespaces/inkscape"
   xmlns:sodipodi="http://sodipodi.sourceforge.net/DTD/sodipodi-0.dtd"
   xmlns="http://www.w3.org/2000/svg"
   xmlns:svg="http://www.w3.org/2000/svg"><sodipodi:namedview
     id="namedview7"
     pagecolor="#ffffff"
     bordercolor="#999999"
     borderopacity="1"
     inkscape:showpageshadow="0"
     inkscape:pageopacity="0"
     inkscape:pagecheckerboard="0"
     inkscape:deskcolor="#d1d1d1"
     inkscape:document-units="mm"
     showgrid="false"
     inkscape:zoom="46.293602"
     inkscape:cx="10.714224"
     inkscape:cy="22.292497"
     inkscape:window-width="1366"
     inkscape:window-height="700"
     inkscape:window-x="0"
     inkscape:window-y="0"
     inkscape:window-maximized="1"
     inkscape:current-layer="layer1" /><defs
     id="defs2" /><g
     inkscape:label="Layer 1"
     inkscape:groupmode="layer"
     id="layer1"><path
       style="fill:#ffef4b;fill-opacity:0.782078;stroke:#ffffff;stroke-width:0;stroke-dasharray:none;stroke-opacity:1;paint-order:stroke markers fill"
       d="M 2.581916,4.4614738 C 2.8506135,3.4064843 -0.33233151,0.64192491 2.9210114,-0.06327734 6.0788338,0.80488963 3.1611725,3.3728134 3.8437134,4.4909196 2.9171559,4.4947596 2.9866232,4.5476857 2.581916,4.4614738 Z"
       id="path49856"
       sodipodi:nodetypes="cccc" /><path
       style="fill:#000000;fill-opacity:1;stroke:#000000;stroke-width:0;stroke-dasharray:none;stroke-opacity:1;paint-order:stroke markers fill"
       d="m 2.4538918,4.4437085 -0.00268,1.8703025 1.4773643,0.00276 -0.00469,-1.8652955 z"
       id="path55118"
       sodipodi:nodetypes="ccccc" /><path
       style="fill:none;fill-opacity:1;stroke:#7c7c7c;stroke-width:0.2;stroke-dasharray:none;stroke-opacity:1;paint-order:stroke markers fill"
       d="M 3.9247418,4.5527149 C 3.8669368,4.5531461 3.5936292,4.6929623 3.550417,4.7221623 3.2950365,4.8718821 3.2717059,4.9043147 3.1789888,4.9626358 3.0928828,5.0244987 3.053005,5.0586852 2.9683452,5.1294659 2.6819665,5.418331 2.5923784,5.5486927 2.4539699,5.5507996"
       id="path60006"
       sodipodi:nodetypes="ccccc" /><path
       style="fill:none;fill-opacity:1;stroke:#7c7c7c;stroke-width:0.2;stroke-dasharray:none;stroke-opacity:1;paint-order:stroke markers fill"
       d="M 3.9247418,5.2230765 C 3.8669368,5.2235077 3.5936292,5.3633239 3.550417,5.3925239 3.2950365,5.5422437 3.2717059,5.5746763 3.1789888,5.6329974 3.0928828,5.6948603 3.053005,5.7290468 2.9683452,5.7998275 2.6819665,6.0886926 2.5923784,6.2190543 2.4539699,6.2211612"
       id="path60010"
       sodipodi:nodetypes="ccccc" /></g></svg>
