<?xml version="1.0" encoding="UTF-8" standalone="no"?>
<!-- Created with Inkscape (http://www.inkscape.org/) -->

<svg
   width="24"
   height="24"
   viewBox="0 0 6.3499999 6.35"
   version="1.1"
   id="svg5"
   inkscape:version="1.2.2 (b0a8486541, 2022-12-01)"
   sodipodi:docname="notification-empty.svg"
   xml:space="preserve"
   xmlns:inkscape="http://www.inkscape.org/namespaces/inkscape"
   xmlns:sodipodi="http://sodipodi.sourceforge.net/DTD/sodipodi-0.dtd"
   xmlns="http://www.w3.org/2000/svg"
   xmlns:svg="http://www.w3.org/2000/svg"><sodipodi:namedview
     id="namedview7"
     pagecolor="#9a9a9a"
     bordercolor="#999999"
     borderopacity="1"
     inkscape:showpageshadow="0"
     inkscape:pageopacity="0"
     inkscape:pagecheckerboard="0"
     inkscape:deskcolor="#d1d1d1"
     inkscape:document-units="mm"
     showgrid="false"
     inkscape:zoom="12.995687"
     inkscape:cx="12.850418"
     inkscape:cy="17.005642"
     inkscape:window-width="1366"
     inkscape:window-height="700"
     inkscape:window-x="0"
     inkscape:window-y="0"
     inkscape:window-maximized="1"
     inkscape:current-layer="layer1" /><defs
     id="defs2" /><g
     inkscape:label="Layer 1"
     inkscape:groupmode="layer"
     id="layer1"><g
       inkscape:label="Layer 1"
       id="layer1-5"
       transform="matrix(0.77794457,0,0,0.77794457,1.5170703,1.5374716)"
       style="fill:#000000"><path
         style="fill:#000000;fill-opacity:1;stroke:#ffffff;stroke-width:0.0902875;stroke-dasharray:none;stroke-opacity:1;paint-order:stroke markers fill"
         id="path23631"
         sodipodi:type="arc"
         sodipodi:cx="2.257782"
         sodipodi:cy="3.8046334"
         sodipodi:rx="0.34865651"
         sodipodi:ry="0.33641571"
         sodipodi:start="6.2782137"
         sodipodi:end="3.1478302"
         sodipodi:arc-type="slice"
         d="M 2.6064342,3.8029609 A 0.34865651,0.33641571 0 0 1 2.4324831,4.0957699 0.34865651,0.33641571 0 0 1 2.0826991,4.0955563 0.34865651,0.33641571 0 0 1 1.9091323,3.802535 l 0.3486497,0.0021 z" /><path
         style="fill:#000000;fill-opacity:1;stroke-width:0;paint-order:stroke markers fill"
         d="M 0.39167762,3.7743139 C 0.39025084,3.6944037 0.54134439,3.4794752 0.72130336,3.3496667 0.90126233,3.2198582 0.70288752,1.3332525 1.2228717,0.54093386 1.6435632,-0.10008814 2.6475686,-0.07766124 3.0638338,0.49315377 3.549416,1.1590216 3.4541407,2.7494457 3.5398234,3.3283362 c 0.1628759,0.1462576 0.2167091,0.191506 0.348254,0.4353912 -1.1464823,0.016087 -2.523515,0.00652 -3.49639978,0.010587 z"
         id="path22695"
         sodipodi:nodetypes="czssccc" /><path
         style="fill:#000000;fill-opacity:1;stroke:#ffffff;stroke-width:0;stroke-dasharray:none;stroke-opacity:1;paint-order:stroke markers fill"
         id="path1733"
         sodipodi:type="arc"
         sodipodi:cx="2.1513832"
         sodipodi:cy="-0.089756988"
         sodipodi:rx="0.17928067"
         sodipodi:ry="0.1729864"
         sodipodi:start="6.2782137"
         sodipodi:end="3.1478302"
         sodipodi:arc-type="slice"
         d="M 2.3306616,-0.090617 A 0.17928067,0.1729864 0 0 1 2.2412152,0.05994668 0.17928067,0.1729864 0 0 1 2.0613548,0.05983683 0.17928067,0.1729864 0 0 1 1.972106,-0.09083599 l 0.1792772,0.001079 z"
         transform="scale(1,-1)" /></g><g
       inkscape:label="Layer 1"
       id="layer1-3"
       transform="matrix(0.1155163,0,0,0.1146995,0.10147629,0.14583316)"><path
         style="fill:none;fill-opacity:1;stroke:#ff4d4f;stroke-width:4.357;stroke-dasharray:none;stroke-opacity:1;paint-order:stroke markers fill"
         id="path10272"
         sodipodi:type="arc"
         sodipodi:cx="26.560852"
         sodipodi:cy="26.46459"
         sodipodi:rx="25.31336"
         sodipodi:ry="25.473633"
         sodipodi:start="6.2799802"
         sodipodi:end="6.2799708"
         sodipodi:arc-type="arc"
         d="M 51.874082,26.382944 A 25.31336,25.473633 0 0 1 26.642043,51.938092 25.31336,25.473633 0 0 1 1.2476222,26.546355 25.31336,25.473633 0 0 1 26.479542,0.99108868 25.31336,25.473633 0 0 1 51.874081,26.382705"
         sodipodi:open="true" /></g><path
       style="fill:#ff4d4f;fill-opacity:1;stroke:#ff4d4f;stroke-width:0.435269;stroke-dasharray:none;stroke-opacity:1;paint-order:stroke markers fill"
       d="M 5.5607727,4.7489668 5.4566529,4.881547 0.97151373,1.4189649 1.0740437,1.3009168 Z"
       id="path10547"
       sodipodi:nodetypes="ccccc"
       inkscape:label="path10547" /></g></svg>
