<?xml version="1.0" encoding="UTF-8" standalone="no"?>
<!-- Created with Inkscape (http://www.inkscape.org/) -->

<svg
   width="24"
   height="24"
   viewBox="0 0 6.3499998 6.3499999"
   version="1.1"
   id="svg21378"
   inkscape:version="1.2.2 (b0a8486541, 2022-12-01)"
   sodipodi:docname="recipes-icon.svg"
   xmlns:inkscape="http://www.inkscape.org/namespaces/inkscape"
   xmlns:sodipodi="http://sodipodi.sourceforge.net/DTD/sodipodi-0.dtd"
   xmlns="http://www.w3.org/2000/svg"
   xmlns:svg="http://www.w3.org/2000/svg">
  <sodipodi:namedview
     id="namedview21380"
     pagecolor="#414141"
     bordercolor="#999999"
     borderopacity="1"
     inkscape:showpageshadow="0"
     inkscape:pageopacity="0"
     inkscape:pagecheckerboard="0"
     inkscape:deskcolor="#d1d1d1"
     inkscape:document-units="mm"
     showgrid="false"
     inkscape:zoom="16.496196"
     inkscape:cx="18.246631"
     inkscape:cy="9.6385858"
     inkscape:window-width="1366"
     inkscape:window-height="700"
     inkscape:window-x="0"
     inkscape:window-y="0"
     inkscape:window-maximized="1"
     inkscape:current-layer="layer1" />
  <defs
     id="defs21375" />
  <g
     inkscape:label="Layer 1"
     inkscape:groupmode="layer"
     id="layer1">
    <path
       style="fill:#000000;fill-opacity:1;stroke:#000000;stroke-width:0.430549;stroke-dasharray:none;stroke-opacity:1;paint-order:stroke markers fill"
       d="M 2.6524013,4.9099315 C 2.3348414,4.8233732 2.3558146,4.8428392 2.0414977,4.5582941 1.7693477,4.3119217 1.4648339,3.516877 1.4648339,3.516877 1.7560146,3.7451355 1.9728455,3.9953485 2.2709669,4.0029127 2.3021129,3.6789819 1.9987102,3.233845 1.8916107,2.545476 2.4927946,3.2035178 2.5443103,3.5825781 2.8851008,3.8842514 2.8988776,3.207983 2.9134683,2.7091215 3.0690319,1.9154592 3.2904659,2.5805454 3.2443532,3.5051766 3.3961797,4.1171358 3.5760143,3.903494 3.7943706,2.9966846 3.8312881,2.8249058 3.9815168,3.1493549 3.9050368,3.7129502 3.9300343,3.998701 4.2905445,3.818197 4.220271,4.1500116 4.6976846,3.2328059 4.72006,3.6453364 4.339677,4.7785224 3.6884631,4.8677351 3.0242193,4.9587331 2.6524013,4.9099311 2.6524013,4.9099315 Z"
       id="path22626"
       sodipodi:nodetypes="cscccccccccsc" />
  </g>
</svg>
