<?xml version="1.0" encoding="UTF-8" standalone="no"?>
<!-- Created with Inkscape (http://www.inkscape.org/) -->

<svg
   width="24"
   height="24"
   viewBox="0 0 6.3499999 6.35"
   version="1.1"
   id="svg8217"
   inkscape:version="1.2.2 (b0a8486541, 2022-12-01)"
   sodipodi:docname="serving.svg"
   xmlns:inkscape="http://www.inkscape.org/namespaces/inkscape"
   xmlns:sodipodi="http://sodipodi.sourceforge.net/DTD/sodipodi-0.dtd"
   xmlns:xlink="http://www.w3.org/1999/xlink"
   xmlns="http://www.w3.org/2000/svg"
   xmlns:svg="http://www.w3.org/2000/svg">
  <sodipodi:namedview
     id="namedview8219"
     pagecolor="#ffffff"
     bordercolor="#999999"
     borderopacity="1"
     inkscape:showpageshadow="0"
     inkscape:pageopacity="0"
     inkscape:pagecheckerboard="0"
     inkscape:deskcolor="#d1d1d1"
     inkscape:document-units="mm"
     showgrid="false"
     inkscape:zoom="1.4174958"
     inkscape:cx="-143.21031"
     inkscape:cy="16.931268"
     inkscape:window-width="1366"
     inkscape:window-height="700"
     inkscape:window-x="0"
     inkscape:window-y="0"
     inkscape:window-maximized="1"
     inkscape:current-layer="layer1" />
  <defs
     id="defs8214">
    <linearGradient
       inkscape:collect="always"
       id="linearGradient12679">
      <stop
         style="stop-color:#f12524;stop-opacity:1;"
         offset="0"
         id="stop12675" />
      <stop
         style="stop-color:#ffcd16;stop-opacity:1;"
         offset="1"
         id="stop12677" />
    </linearGradient>
    <linearGradient
       inkscape:collect="always"
       xlink:href="#linearGradient12679"
       id="linearGradient12681"
       x1="2.7305222"
       y1="4.7676539"
       x2="4.4656911"
       y2="2.4475336"
       gradientUnits="userSpaceOnUse"
       gradientTransform="matrix(0.99414522,0,0,1.023562,-0.0202967,-0.74876481)" />
  </defs>
  <g
     inkscape:label="Layer 1"
     inkscape:groupmode="layer"
     id="layer1">
    <g
       id="g10436"
       transform="matrix(1.4671941,0,0,2.0873635,-0.53292113,-0.79865441)">
      <rect
         style="fill:#000000;stroke-width:0.224465;paint-order:stroke markers fill"
         id="rect10370"
         width="0.32365701"
         height="1.770185"
         x="0.71448463"
         y="1.6431608"
         rx="7.2241254"
         ry="0.076694958" />
      <path
         style="fill:#000000;stroke-width:0.339214;paint-order:stroke markers fill"
         id="path10424"
         sodipodi:type="arc"
         sodipodi:cx="0.88411123"
         sodipodi:cy="1.0922822"
         sodipodi:rx="0.50873315"
         sodipodi:ry="0.69955486"
         sodipodi:start="6.2802542"
         sodipodi:end="6.2799708"
         sodipodi:arc-type="slice"
         d="M 1.3928422,1.0902317 A 0.50873315,0.69955486 0 0 1 0.88563842,1.7918339 0.50873315,0.69955486 0 0 1 0.37538047,1.0944318 0.50873315,0.69955486 0 0 1 0.88251195,0.39273077 0.50873315,0.69955486 0 0 1 1.3928418,1.0900335 l -0.50873057,0.00225 z" />
    </g>
    <g
       id="g10432"
       transform="matrix(1.3928191,0,0,2.0432288,1.9945009,-0.62428641)">
      <rect
         style="fill:#000000;stroke-width:0.224465;paint-order:stroke markers fill"
         id="rect10426"
         width="0.32365701"
         height="1.770185"
         x="2.4812818"
         y="1.6431608"
         rx="7.2241254"
         ry="0.076694958" />
      <path
         style="fill:#000000;stroke-width:0.31;paint-order:stroke markers fill"
         d="m 2.2071303,0.31439429 c 0,0 -0.2629066,1.02967361 0.08981,1.34384301 C 2.459354,1.8029012 2.8163477,1.8282529 2.9787049,1.6835363 3.3366684,1.3644677 2.9460534,0.31703707 2.9460534,0.31703707 L 2.8052832,1.1186038 c 0,0 -0.187054,-0.82695489 -0.1960003,-0.80020287 -0.00894,0.0267521 -0.1766878,0.85253837 -0.1766878,0.81056227 0,-0.041976 -0.2254648,-0.81456899 -0.2254648,-0.81456891 z"
         id="path10428"
         sodipodi:nodetypes="caaccssc" />
    </g>
    <path
       style="fill:url(#linearGradient12681);fill-opacity:1;stroke:#000000;stroke-width:0.806998;stroke-dasharray:none;stroke-opacity:1;paint-order:stroke markers fill"
       id="path10438"
       sodipodi:type="arc"
       sodipodi:cx="3.1983631"
       sodipodi:cy="3.2701728"
       sodipodi:rx="1.4928616"
       sodipodi:ry="2.3825307"
       sodipodi:start="6.2802542"
       sodipodi:end="6.2802432"
       sodipodi:arc-type="arc"
       d="M 4.6912183,3.2631894 A 1.4928616,2.3825307 0 0 1 3.2027429,5.6526933 1.4928616,2.3825307 0 0 1 1.7055079,3.2771694 1.4928616,2.3825307 0 0 1 3.193975,0.88765244 1.4928616,2.3825307 0 0 1 4.6912182,3.2631632"
       sodipodi:open="true" />
  </g>
</svg>
