<?xml version="1.0" encoding="UTF-8" standalone="no"?>
<!-- Created with Inkscape (http://www.inkscape.org/) -->

<svg
   width="200"
   height="200"
   viewBox="0 0 52.916665 52.916666"
   version="1.1"
   id="svg194"
   sodipodi:docname="settings.svg"
   inkscape:version="1.2.2 (b0a8486541, 2022-12-01)"
   xmlns:inkscape="http://www.inkscape.org/namespaces/inkscape"
   xmlns:sodipodi="http://sodipodi.sourceforge.net/DTD/sodipodi-0.dtd"
   xmlns="http://www.w3.org/2000/svg"
   xmlns:svg="http://www.w3.org/2000/svg">
  <sodipodi:namedview
     id="namedview196"
     pagecolor="#ffffff"
     bordercolor="#999999"
     borderopacity="1"
     inkscape:showpageshadow="0"
     inkscape:pageopacity="0"
     inkscape:pagecheckerboard="0"
     inkscape:deskcolor="#d1d1d1"
     inkscape:document-units="mm"
     showgrid="false"
     inkscape:zoom="2.0285049"
     inkscape:cx="136.55377"
     inkscape:cy="113.384"
     inkscape:window-width="1366"
     inkscape:window-height="700"
     inkscape:window-x="0"
     inkscape:window-y="0"
     inkscape:window-maximized="1"
     inkscape:current-layer="layer1" />
  <defs
     id="defs191" />
  <g
     inkscape:label="Layer 1"
     inkscape:groupmode="layer"
     id="layer1">
    <g
       id="g4626"
       transform="matrix(0.63286603,0,0,0.63436257,9.7138192,9.6933976)"
       style="fill:#ffffff;stroke:#ffffff;stroke-opacity:1">
      <path
         style="fill:#ffffff;stroke:#ffffff;stroke-width:4.10829;stroke-dasharray:none;paint-order:stroke markers fill;stroke-opacity:1"
         d="m 28.750669,51.717884 c -0.675888,-1.699666 -0.537613,-0.83378 -0.890981,-1.924047 -0.353375,-1.090268 -0.642494,-2.232137 -0.642494,-2.537489 0,-0.544499 -0.06458,-0.56645 -3.357463,-1.140983 -1.846604,-0.322192 -3.564358,-0.585807 -3.817228,-0.585807 -0.326722,0 -0.688591,0.376935 -1.250505,1.302557 -1.198753,1.974664 -2.900076,3.26278 -3.660928,4.067439 -0.37045,0.391783 -0.777417,0.710194 -0.904372,0.707581 -0.12696,-0.0026 -1.034238,-0.471106 -2.016188,-1.041097 l -1.785366,-1.036349 0.863383,-2.301373 c 0.87209,-2.324584 1.13511,-2.868079 2.069582,-4.386994 L 13.865808,42.016096 11.457271,39.195387 9.0487333,36.374675 7.126525,36.904647 c -1.0572148,0.291481 -0.5957017,0.07946 -2.523197,0.618202 -1.927496,0.538739 -3.2549683,0.978847 -3.4959053,0.978016 -0.35410399,-0.0013 -0.57485273,-0.387467 -1.15172749,-2.01519 -0.39251336,-1.107523 -0.63892616,-2.084702 -0.54758415,-2.171507 0.45150003,-0.429062 6.52776094,-4.135083 6.94613204,-4.130255 0.2086321,0.0022 0.2737927,-0.901731 0.2737927,-3.799144 V 22.582465 L 3.3972896,21.054586 C 1.6203793,20.214252 3.2034767,21.134947 2.2745691,20.7857 1.345661,20.436446 0.36894941,19.987138 0.1041032,19.787231 L -0.37743923,19.42376 0.36326312,17.423636 C 0.8601805,16.081807 1.2140894,15.426535 1.4385608,15.432694 c 0.6049519,0.0166 4.0063591,-0.133122 6.2585047,0.542601 0.7686698,0.230628 1.4197106,0.391113 1.44676,0.356637 0.045074,-0.05745 3.7321315,-4.421584 4.4236905,-5.236037 0.258066,-0.303926 0.317307,-0.458535 -0.990681,-3.2822111 -0.83184,-1.7957555 -0.428261,-0.7064273 -1.01404,-1.8288181 L 10.497742,3.9441577 10.991801,3.5739041 C 11.263533,3.3702643 12.165467,2.8331063 12.9961,2.3802213 l 1.510241,-0.8234281 1.721285,2.0289094 c 1.782526,2.1010955 3.323392,3.078545 3.323392,3.5425426 0,0.1453532 0.07392,0.2630207 0.164274,0.2614841 0.387081,-0.00667 7.308082,-1.266333 7.363588,-1.3403109 0.03366,-0.044869 0.481795,-2.2660117 0.99587,-4.2550553 0.514073,-1.98904341 0.01512,-0.2521443 0.25614,-1.17850001 0.666117,-2.56024489 0.570874,-2.49827089 3.130603,-2.03707739 l 2.151351,0.3876153 -0.15289,2.9819429 c -0.212057,4.1359252 0.60258,4.3742118 0.44465,4.8962319 -0.113659,0.3757024 0.279926,0.6733185 2.753644,2.0821969 1.58744,0.9041116 3.06237,1.7296703 3.277622,1.8345753 0.38112,0.185746 -1.896836,3.132087 5.308232,-1.9406448 0.72769,-0.5123307 1.442955,-0.9315086 1.589481,-0.9315086 0.146525,0 0.888779,0.7405071 1.649458,1.6455731 l 1.383053,1.6455743 -2.240865,2.527254 c -1.232477,1.389992 0.827353,-0.91842 0.619143,-0.772378 -0.208211,0.146042 -1.093597,0.940584 -1.967519,1.765645 l -1.58895,1.500111 0.820647,2.225919 c 0.451362,1.224257 1.010981,2.740353 1.24361,3.369103 0.498727,1.347975 -3.81229,1.241219 1.722078,1.59177 2.108198,0.133538 4.498404,0.346095 5.311566,0.472355 l 1.478472,0.229563 v 2.253303 2.253305 l -3.230742,0.246711 c -1.776911,0.135692 -3.920703,0.362545 -4.763983,0.504109 -0.843278,0.141569 1.843018,0.298039 1.163985,0.347715 l -1.234607,0.09034 -1.22952,3.340689 c -0.676238,1.837377 -1.229526,3.391256 -1.229526,3.453056 0,0.0618 -0.839035,-0.754599 0.757171,0.801288 3.977441,3.876969 5.086058,4.57396 5.086058,4.765993 0,0.287694 -2.288939,3.640036 -2.891696,3.312858 -0.438201,-0.237858 -4.516455,-1.267875 -6.685562,-2.98851 l -0.77708,-0.616415 -3.040066,1.723141 c -1.67204,0.947724 -3.116545,1.799661 -3.210012,1.893192 -0.09346,0.09353 0.01873,1.451944 0.249314,3.018697 0.230591,1.56675 -0.153218,0.944006 -0.100717,2.596047 l 0.06003,1.889097 -0.52485,0.118713 c -0.288666,0.06529 -1.325501,0.251379 -2.304075,0.413512 l -1.779228,0.294788 z m 2.008053,-12.462561 c 6.366997,-1.872162 10.555745,-8.29306 9.595795,-14.709303 -0.674051,-4.505312 -3.447157,-8.232928 -7.551964,-10.151373 -2.13585,-0.998222 -3.515156,-1.303486 -5.889653,-1.303486 -3.789497,0 -6.881934,1.27567 -9.570347,3.947889 -2.61154,2.595806 -3.927824,5.718867 -3.921239,9.303657 0.0042,2.315225 0.464411,4.180159 1.543557,6.255788 1.909135,3.672024 5.488067,6.238222 9.789774,7.019547 1.392171,0.252862 4.56178,0.06139 6.004077,-0.362719 z"
         id="path4501"
         sodipodi:nodetypes="ssssssscscsscccsscsscscssscssssssscsscsscsssscssssssscssscsssscccssccsssssscsssscsscscsssscssc" />
      <path
         style="fill:#ffffff;stroke:#ffffff;stroke-width:0;stroke-dasharray:none;paint-order:stroke markers fill;stroke-opacity:1"
         d="m 41.891789,33.911179 c -0.310584,0.481601 -1.793094,2.356372 -1.793094,2.356372 l 2.412244,3.014858 c 0,0 1.934716,-1.881556 2.066537,-2.461056 0.131826,-0.5795 -2.685687,-2.910174 -2.685687,-2.910174 z"
         id="path4622" />
    </g>
    <path
       style="fill:none;stroke:#ffffff;stroke-width:2.91532;stroke-dasharray:none;paint-order:stroke markers fill;stroke-opacity:1"
       id="path4628"
       sodipodi:type="arc"
       sodipodi:cx="26.475956"
       sodipodi:cy="26.440624"
       sodipodi:rx="24.843906"
       sodipodi:ry="24.965771"
       sodipodi:start="6.2831835"
       sodipodi:end="0"
       sodipodi:open="true"
       sodipodi:arc-type="arc"
       d="m 51.319862,26.440579 a 24.843906,24.965771 0 1 0 0,4.5e-5" />
    <g
       id="g5582"
       transform="matrix(1.0595992,0,0,1.0595992,29.951378,-4.6087239)">
      <path
         style="fill:#000000;stroke:#ffffff;stroke-width:3.82349;stroke-dasharray:none;stroke-opacity:1;paint-order:stroke markers fill"
         id="path4831"
         sodipodi:type="arc"
         sodipodi:cx="39.65387"
         sodipodi:cy="39.091854"
         sodipodi:rx="6.6854763"
         sodipodi:ry="6.5435758"
         sodipodi:start="6.2831835"
         sodipodi:end="6.2831853"
         sodipodi:open="true"
         sodipodi:arc-type="arc"
         d="m 46.339346,39.091842 a 6.6854763,6.5435758 0 1 0 0,1.2e-5" />
      <path
         style="fill:#f9f9f9;stroke:#2d2d2d;stroke-width:0;stroke-dasharray:none;stroke-opacity:1;paint-order:stroke markers fill"
         d="m 43.428988,35.873521 c 1.14934,-0.50932 1.77084,1.105521 1.526764,1.564987 -0.662129,1.896013 -1.206084,4.554175 -5.112625,3.693844 l -2.359676,3.033579 c -0.750737,-0.310974 -1.242527,-0.785648 -2.202663,-1.49813 l 2.279827,-2.963245 c -2.286133,-2.750514 -0.20822,-4.175078 1.231885,-5.542207 1.265829,-1.220403 1.820338,-0.559964 2.040149,0.281179 -1.100142,0.942105 -1.709616,2.352143 -1.796324,3.131837 -0.101483,0.912645 1.678498,1.959764 2.623172,1.295848 1.205879,-1.039878 1.356956,-1.520507 1.769491,-2.997692 z"
         id="path4835"
         sodipodi:nodetypes="ccccccccscc" />
    </g>
  </g>
</svg>
