<?xml version="1.0" encoding="UTF-8" standalone="no"?>
<!-- Created with Inkscape (http://www.inkscape.org/) -->

<svg
   width="24"
   height="24"
   viewBox="0 0 6.3499999 6.35"
   version="1.1"
   id="svg5"
   inkscape:version="1.2.2 (b0a8486541, 2022-12-01)"
   sodipodi:docname="shield-off.svg"
   inkscape:export-filename="shield-off.svg"
   inkscape:export-xdpi="96"
   inkscape:export-ydpi="96"
   xmlns:inkscape="http://www.inkscape.org/namespaces/inkscape"
   xmlns:sodipodi="http://sodipodi.sourceforge.net/DTD/sodipodi-0.dtd"
   xmlns="http://www.w3.org/2000/svg"
   xmlns:svg="http://www.w3.org/2000/svg">
  <sodipodi:namedview
     id="namedview7"
     pagecolor="#ffffff"
     bordercolor="#999999"
     borderopacity="1"
     inkscape:showpageshadow="0"
     inkscape:pageopacity="0"
     inkscape:pagecheckerboard="0"
     inkscape:deskcolor="#d1d1d1"
     inkscape:document-units="mm"
     showgrid="false"
     inkscape:zoom="13.065749"
     inkscape:cx="16.455237"
     inkscape:cy="11.403862"
     inkscape:window-width="1366"
     inkscape:window-height="700"
     inkscape:window-x="0"
     inkscape:window-y="0"
     inkscape:window-maximized="1"
     inkscape:current-layer="layer1" />
  <defs
     id="defs2" />
  <g
     inkscape:label="Layer 1"
     inkscape:groupmode="layer"
     id="layer1">
    <path
       style="fill:#2bbfff;fill-opacity:0.80069566;stroke:#002434;stroke-width:1.11215;stroke-dasharray:none;stroke-opacity:1;paint-order:stroke markers fill"
       d="M 0.57213821,1.1017497 C 1.7573095,1.8123161 2.8369601,1.0123325 3.2013034,0.71990654 3.5765057,1.0321487 4.8593989,1.5844818 5.8037469,1.0791329 c 0,0 -0.010715,2.3951342 -0.00673,3.7329075 C 5.7976753,5.0285528 4.2440144,5.7356649 3.3311319,5.7804416 2.3561154,5.8282661 0.58250199,4.9937021 0.58120166,4.8363249 0.56979537,3.4558322 0.57213817,1.1017497 0.57213821,1.1017497 Z"
       id="path4687"
       sodipodi:nodetypes="cccsssc" />
    <path
       style="fill:none;fill-opacity:0.800696;stroke:#ff0b0b;stroke-width:0.601044;stroke-dasharray:none;stroke-opacity:1;paint-order:stroke markers fill"
       id="path10140"
       sodipodi:type="arc"
       sodipodi:cx="3.1622896"
       sodipodi:cy="3.1805415"
       sodipodi:rx="2.8725691"
       sodipodi:ry="2.8489969"
       sodipodi:start="6.2798917"
       sodipodi:end="6.279873"
       sodipodi:arc-type="arc"
       d="M 6.0348431,3.1711581 A 2.8725691,2.8489969 0 0 1 3.1717641,6.0295229 2.8725691,2.8489969 0 0 1 0.2897362,3.1899516 2.8725691,2.8489969 0 0 1 3.1527882,0.33156022 2.8725691,2.8489969 0 0 1 6.0348429,3.1711048"
       sodipodi:open="true" />
    <rect
       style="fill:#ff0b0b;fill-opacity:1;stroke:#ff0b0b;stroke-width:0.433769;stroke-dasharray:none;stroke-opacity:1;paint-order:stroke markers fill"
       id="rect11141"
       width="0.3996911"
       height="5.1226835"
       x="-0.6985113"
       y="1.7171566"
       rx="2.4738865"
       ry="0"
       transform="matrix(0.65407177,-0.75643249,0.76506662,0.64395113,0,0)" />
  </g>
</svg>
