<?xml version="1.0" encoding="UTF-8" standalone="no"?>
<!-- Created with Inkscape (http://www.inkscape.org/) -->

<svg
   width="24"
   height="24"
   viewBox="0 0 6.3499999 6.35"
   version="1.1"
   id="svg3015"
   inkscape:export-filename="arrow-left.svg"
   inkscape:export-xdpi="96"
   inkscape:export-ydpi="96"
   sodipodi:docname="tip-clarity.svg"
   inkscape:version="1.2.2 (b0a8486541, 2022-12-01)"
   xmlns:inkscape="http://www.inkscape.org/namespaces/inkscape"
   xmlns:sodipodi="http://sodipodi.sourceforge.net/DTD/sodipodi-0.dtd"
   xmlns="http://www.w3.org/2000/svg"
   xmlns:svg="http://www.w3.org/2000/svg">
  <sodipodi:namedview
     id="namedview3017"
     pagecolor="#ffffff"
     bordercolor="#999999"
     borderopacity="1"
     inkscape:showpageshadow="0"
     inkscape:pageopacity="0"
     inkscape:pagecheckerboard="0"
     inkscape:deskcolor="#d1d1d1"
     inkscape:document-units="mm"
     showgrid="false"
     inkscape:zoom="11.665609"
     inkscape:cx="3.6003264"
     inkscape:cy="11.315312"
     inkscape:window-width="1366"
     inkscape:window-height="700"
     inkscape:window-x="0"
     inkscape:window-y="0"
     inkscape:window-maximized="1"
     inkscape:current-layer="layer1" />
  <defs
     id="defs3012" />
  <g
     inkscape:label="Layer 1"
     inkscape:groupmode="layer"
     id="layer1">
    <rect
       style="fill:#ffffff;fill-opacity:0;stroke:#000000;stroke-width:0.177609;stroke-dasharray:none;stroke-opacity:1;paint-order:stroke markers fill"
       id="rect388"
       width="0.98838347"
       height="2.5049403"
       x="2.5055401"
       y="3.741322"
       rx="0.15888664"
       ry="0" />
    <rect
       style="fill:#000000;fill-opacity:1;stroke:#000000;stroke-width:0.330702;stroke-dasharray:none;stroke-opacity:1;paint-order:stroke markers fill"
       id="rect1933"
       width="2.236995"
       height="3.8371091"
       x="1.8812344"
       y="0.18706243"
       rx="0.53440493"
       ry="1.26573" />
    <path
       style="fill:#000000;fill-opacity:1;stroke:#000000;stroke-width:0.112759;stroke-dasharray:none;stroke-opacity:1;paint-order:stroke markers fill"
       id="path1987"
       sodipodi:type="arc"
       sodipodi:cx="2.3865972"
       sodipodi:cy="3.9513435"
       sodipodi:rx="0.22394259"
       sodipodi:ry="0.28695372"
       sodipodi:start="0.018824263"
       sodipodi:end="6.2799708"
       sodipodi:open="true"
       sodipodi:arc-type="arc"
       d="M 2.6105001,3.9567449 A 0.22394259,0.28695372 0 0 1 2.3836155,4.2382718 0.22394259,0.28695372 0 0 1 2.1626614,3.9491039 0.22394259,0.28695372 0 0 1 2.3871111,3.6643906 0.22394259,0.28695372 0 0 1 2.6105386,3.9504211" />
    <path
       style="fill:#000000;fill-opacity:1;stroke:#000000;stroke-width:0.112759;stroke-dasharray:none;stroke-opacity:1;paint-order:stroke markers fill"
       id="path1989"
       sodipodi:type="arc"
       sodipodi:cx="3.6262326"
       sodipodi:cy="3.9513435"
       sodipodi:rx="0.22394259"
       sodipodi:ry="0.28695372"
       sodipodi:start="0.018824263"
       sodipodi:end="6.2799708"
       sodipodi:open="true"
       sodipodi:arc-type="arc"
       d="M 3.8501355,3.9567449 A 0.22394259,0.28695372 0 0 1 3.623251,4.2382718 0.22394259,0.28695372 0 0 1 3.4022969,3.9491039 0.22394259,0.28695372 0 0 1 3.6267466,3.6643906 0.22394259,0.28695372 0 0 1 3.8501741,3.9504211" />
    <path
       style="fill:#000000;fill-opacity:1;stroke:#000000;stroke-width:0.112759;stroke-dasharray:none;stroke-opacity:1;paint-order:stroke markers fill"
       id="path1991"
       sodipodi:type="arc"
       sodipodi:cx="2.9989729"
       sodipodi:cy="5.2214589"
       sodipodi:rx="0.22394259"
       sodipodi:ry="0.28695372"
       sodipodi:start="0.018824263"
       sodipodi:end="6.2799708"
       sodipodi:open="true"
       sodipodi:arc-type="arc"
       d="M 3.2228758,5.2268603 A 0.22394259,0.28695372 0 0 1 2.9959913,5.5083872 0.22394259,0.28695372 0 0 1 2.7750371,5.2192193 0.22394259,0.28695372 0 0 1 2.9994869,4.934506 0.22394259,0.28695372 0 0 1 3.2229143,5.2205365" />
  </g>
</svg>
